<?xml version="1.0" standalone="no"?>
<!DOCTYPE svg PUBLIC "-//W3C//DTD SVG 20010904//EN"
 "http://www.w3.org/TR/2001/REC-SVG-20010904/DTD/svg10.dtd">
<svg version="1.0" xmlns="http://www.w3.org/2000/svg"
 width="198.000000pt" height="198.000000pt" viewBox="0 0 198.000000 198.000000"
 preserveAspectRatio="xMidYMid meet">
<metadata>
Created by potrace 1.14, written by Peter Selinger 2001-2017
</metadata>
<g transform="translate(0.000000,198.000000) scale(0.100000,-0.100000)"
fill="#000000" stroke="none">
<path d="M637 1053 c-11 -10 -8 -121 3 -128 6 -4 10 20 10 64 0 71 -1 77 -13
64z"/>
<path d="M890 1039 c0 -23 -3 -25 -30 -21 -24 3 -32 0 -41 -22 -9 -20 -9 -32
-1 -52 11 -22 17 -25 50 -22 l37 4 3 58 c2 33 -2 64 -7 69 -8 8 -11 3 -11 -14z
m-4 -44 c11 -27 -5 -65 -26 -65 -13 0 -22 9 -26 25 -8 34 1 55 26 55 11 0 23
-7 26 -15z"/>
<path d="M1070 990 c0 -40 4 -70 10 -70 6 0 10 15 10 34 0 32 3 35 33 39 l32
4 -32 1 c-28 2 -33 6 -33 26 0 21 5 25 38 29 34 3 33 4 -10 5 l-48 2 0 -70z"/>
<path d="M1598 1033 c-2 -9 -1 -36 1 -60 3 -46 23 -65 44 -44 9 9 8 11 -5 6
-15 -6 -18 -1 -18 33 0 23 5 43 13 45 10 4 10 6 0 6 -7 1 -13 8 -13 16 0 20
-18 19 -22 -2z"/>
<path d="M700 969 c0 -60 18 -65 22 -6 2 34 7 42 23 42 16 0 21 -9 26 -45 l7
-45 -2 50 -1 50 -37 2 -38 1 0 -49z"/>
<path d="M940 1001 c-15 -28 -12 -46 8 -64 27 -24 59 -21 78 8 15 23 15 27 0
50 -9 14 -21 25 -27 25 -6 0 -3 -7 5 -16 29 -28 13 -74 -25 -74 -30 0 -39 49
-13 74 14 14 14 16 0 16 -8 0 -20 -9 -26 -19z"/>
<path d="M1191 1006 c-16 -19 -10 -66 10 -79 25 -16 68 0 75 27 7 30 -11 66
-33 66 -15 0 -15 -1 1 -13 26 -19 18 -71 -11 -75 -33 -5 -49 32 -28 64 17 26
5 34 -14 10z"/>
<path d="M1312 965 l1 -50 6 45 c5 35 10 45 24 44 9 -1 17 2 17 7 0 5 -11 8
-25 7 -23 -2 -25 -6 -23 -53z"/>
<path d="M1392 1008 c-7 -7 -12 -24 -12 -38 0 -14 5 -31 12 -38 14 -14 64 -16
72 -3 3 5 -9 8 -26 7 -23 -1 -33 4 -36 17 -3 14 4 17 32 17 23 0 36 5 36 13 0
15 -20 37 -34 37 -6 0 -5 -5 2 -12 20 -20 14 -28 -18 -28 -28 0 -30 2 -20 20
12 23 9 25 -8 8z"/>
<path d="M1497 1013 c-15 -14 -6 -33 23 -48 17 -9 30 -20 30 -25 0 -14 -34
-12 -49 3 -11 10 -13 9 -9 -3 3 -9 17 -15 34 -15 22 0 30 5 32 22 3 17 -4 26
-23 33 -18 7 -25 15 -21 25 5 15 -5 20 -17 8z"/>
<path d="M1530 1016 c0 -2 7 -7 16 -10 8 -3 12 -2 9 4 -6 10 -25 14 -25 6z"/>
</g>
</svg>
